<svg width="172" height="22" viewBox="0 0 172 22" fill="none" xmlns="http://www.w3.org/2000/svg">
<g id="Logo" clip-path="url(#clip0_229_1703)">
<g id="Group">
<path id="Vector" d="M57.2766 5.26855H61.7829C65.3634 5.26855 67.8475 7.54705 67.8475 10.9911C67.8475 14.4351 65.3634 16.6961 61.7829 16.6961H57.2766V5.26855ZM61.7829 14.5541C64.0447 14.5541 65.3634 12.9266 65.3634 10.9902C65.3634 9.0538 64.1296 7.40968 61.7829 7.40968H59.71V14.5541H61.7829Z" fill="#09090B"/>
<path id="Vector_2" d="M69.2711 5.26855H71.7386V12.0533C71.7386 13.6467 72.6127 14.7431 74.3942 14.7431C76.1757 14.7431 77.0157 13.6467 77.0157 12.0533V5.26855H79.4832V12.1216C79.4832 14.9653 77.8557 16.9017 74.3951 16.9017C70.9345 16.9017 69.2729 14.9487 69.2729 12.1391V5.26855H69.2711Z" fill="#09090B"/>
<path id="Vector_3" d="M91.5031 8.4728L88.2822 16.6961H87.22L83.9991 8.4728V16.6961H81.5666V5.26855H84.9756L87.7511 12.3954L90.5266 5.26855H93.9531V16.6961H91.5031V8.4728Z" fill="#09090B"/>
<path id="Vector_4" d="M96.0811 5.26855H102.095C104.271 5.26855 105.384 6.6563 105.384 8.18143C105.384 9.6208 104.493 10.5798 103.414 10.8029C104.63 10.9911 105.606 12.1732 105.606 13.6126C105.606 15.3258 104.458 16.6961 102.282 16.6961H96.0803V5.26855H96.0811ZM101.564 9.85968C102.386 9.85968 102.9 9.32856 102.9 8.5918C102.9 7.85505 102.386 7.34143 101.564 7.34143H98.5145V9.85968H101.564ZM101.65 14.6223C102.575 14.6223 103.123 14.0912 103.123 13.2687C103.123 12.5494 102.609 11.9326 101.65 11.9326H98.5145V14.6223H101.65Z" fill="#09090B"/>
<path id="Vector_5" d="M113.724 8.85003L111.737 16.697H109.149L105.877 5.26953H108.601L110.605 13.5278L112.781 5.26953H114.683L116.841 13.5278L118.828 5.26953H121.57L118.315 16.697H115.727L113.723 8.85003H113.724Z" fill="#09090B"/>
<path id="Vector_6" d="M129.085 14.7265H123.98L123.26 16.697H120.588L125.009 5.26953H128.058L132.461 16.697H129.805L129.086 14.7265H129.085ZM124.631 12.6195H128.417L126.532 7.37653L124.631 12.6195Z" fill="#09090B"/>
<path id="Vector_7" d="M135.054 12.0192L130.651 5.26855H133.426L136.27 9.85968L139.08 5.26855H141.855L137.486 12.0192V16.6961H135.054V12.0192Z" fill="#09090B"/>
<path id="Vector_8" d="M142.754 13.2355C143.559 14.0747 144.811 14.7773 146.387 14.7773C147.723 14.7773 148.374 14.1438 148.374 13.4919C148.374 12.6353 147.38 12.3439 146.061 12.0359C144.194 11.608 141.795 11.0935 141.795 8.54117C141.795 6.63979 143.44 5.09717 146.13 5.09717C147.947 5.09717 149.454 5.64579 150.585 6.69054L149.231 8.47204C148.306 7.61542 147.073 7.22167 145.959 7.22167C144.845 7.22167 144.28 7.70117 144.28 8.38629C144.28 9.15717 145.239 9.39692 146.558 9.70579C148.443 10.1337 150.841 10.6998 150.841 13.2347C150.841 15.325 149.35 16.9009 146.267 16.9009C144.074 16.9009 142.497 16.1642 141.418 15.0853L142.754 13.2347V13.2355Z" fill="#09090B"/>
<path id="Vector_9" d="M153.38 14.1099C154.134 14.1099 154.767 14.7442 154.767 15.4976C154.767 16.251 154.134 16.8854 153.38 16.8854C152.625 16.8854 151.992 16.251 151.992 15.4976C151.992 14.7442 152.625 14.1099 153.38 14.1099Z" fill="#09090B"/>
<path id="Vector_10" d="M156.626 5.26855H159.058V16.6961H156.626V5.26855Z" fill="#09090B"/>
<path id="Vector_11" d="M161.149 5.26855H165.655C169.235 5.26855 171.72 7.54705 171.72 10.9911C171.72 14.4351 169.235 16.6961 165.655 16.6961H161.149V5.26855ZM165.655 14.5541C167.917 14.5541 169.235 12.9266 169.235 10.9902C169.235 9.0538 168.002 7.40968 165.655 7.40968H163.582V14.5541H165.655Z" fill="#09090B"/>
</g>
<g id="Group_2">
<path id="Vector_12" d="M20.475 10.7812C20.475 16.4591 15.8716 21.0625 10.1937 21.0625H0.217C0.097125 21.0625 0 20.9654 0 20.8455V16.1179C0 15.998 0.097125 15.9009 0.217 15.9009H9.75625C12.5834 15.9009 14.875 13.6093 14.875 10.7821C14.875 7.955 12.5834 5.66337 9.75625 5.66337H0.217C0.097125 5.66337 0 5.56625 0 5.44637V0.717C0 0.597125 0.097125 0.5 0.217 0.5H10.1937C15.8716 0.5 20.475 5.10337 20.475 10.7812Z" fill="#FE4E30"/>
<path id="Vector_13" d="M46.2875 0.717V9.79688C46.2875 16.2605 41.048 21.5 34.5844 21.5C28.1207 21.5 22.8812 16.2605 22.8812 9.79688V0.717C22.8812 0.597125 22.9784 0.5 23.0982 0.5H28.2634C28.3832 0.5 28.4803 0.597125 28.4803 0.717V9.79688C28.4803 13.1674 31.213 15.9 34.5835 15.9C37.954 15.9 40.6866 13.1674 40.6866 9.79688V0.717C40.6866 0.597125 40.7837 0.5 40.9036 0.5H46.0687C46.1886 0.5 46.2857 0.597125 46.2857 0.717H46.2875Z" fill="#FE4E30"/>
<path id="Vector_14" d="M37.1455 0.5H31.9795C31.8597 0.5 31.7625 0.597154 31.7625 0.717V10.1705C31.7625 10.2903 31.8597 10.3875 31.9795 10.3875H37.1455C37.2654 10.3875 37.3625 10.2903 37.3625 10.1705V0.717C37.3625 0.597154 37.2654 0.5 37.1455 0.5Z" fill="#FE4E30"/>
</g>
</g>
<defs>
<clipPath id="clip0_229_1703">
<rect width="171.72" height="21" fill="white" transform="translate(0 0.5)"/>
</clipPath>
</defs>
</svg>
